<svg version="1" xmlns="http://www.w3.org/2000/svg" width="2320" height="2320" viewBox="0 0 1740.000000 1740.000000"><path d="M853.5 10.3c-8.8 5.1-18.2 10.6-21 12.2-2.7 1.7-6.7 3.9-8.7 5-2.1 1.1-3.4 2.2-3 2.6.7.7 39.4 23.2 49.2 28.7 2.5 1.4 13.5 7.8 24.5 14.2 11.1 6.4 20.7 11.9 21.5 12.3.8.4 3.1 1.7 5 2.8 4.3 2.6 46.1 26.8 51.3 29.8 2 1.1 5.4 3.1 7.5 4.2 2 1.2 7.8 4.5 12.7 7.4 5 2.9 10.6 6.2 12.5 7.3 7.3 4.1 67.7 39 72.8 42 2.9 1.8 5.5 3.2 5.8 3.2.2 0 2.1 1.1 4.2 2.4 3.1 1.9 41.4 24.1 53.2 30.9 1.9 1 16.6 9.5 32.5 18.7 16 9.2 30.8 17.8 33.1 19.1 2.3 1.3 15 8.7 28.3 16.4 13.3 7.7 25.6 14.8 27.4 15.8 31.8 18.4 67.5 39.1 68.7 39.7.8.5 4.6 2.7 8.4 5 3.7 2.2 7 4 7.2 4 .2 0 3.2 1.7 6.6 3.8 3.5 2.1 7 4.1 7.8 4.5.8.4 3.1 1.7 5 2.8 1.9 1.2 14.1 8.2 27 15.7 26.1 15 53.3 30.7 77.5 44.7l19.5 11.3c1.9 1.1 9.1 5.2 16 9.2 6.9 3.9 14.3 8.2 16.5 9.5 17.1 9.8 22.7 13.3 22.6 14.1-.1.8-34.2 20.8-105.6 61.9-13.2 7.6-27.6 15.9-32 18.5-4.4 2.6-10 5.8-12.5 7.2-2.5 1.4-18.4 10.6-35.5 20.5-17 9.9-33 19.1-35.5 20.5-2.5 1.4-9.9 5.7-16.5 9.5-6.6 3.9-14 8.1-16.5 9.5-2.5 1.4-10.1 5.8-17 9.8-6.9 4-21.5 12.4-32.5 18.8-16.5 9.5-51.8 29.9-83 48-3.3 1.9-8.5 4.8-11.5 6.5-3 1.6-6.6 3.8-8 4.7-1.4.9-5 3-8 4.7-6.8 3.8-28 15.9-30 17.3-.8.6-2.2 1.3-3 1.7-.8.4-3.3 1.7-5.4 3.1-2.2 1.3-5.8 3.4-8 4.7-2.3 1.2-17.1 9.7-33.1 18.9-41.3 23.9-49.1 28.4-57 33.1-3.8 2.3-7.7 4.4-8.5 4.8-.8.4-3.1 1.7-5 2.8-6.1 3.7-45.7 26.6-52.5 30.4-2.2 1.2-12.8 7.3-23.5 13.5-10.7 6.3-21.3 12.4-23.4 13.6l-3.9 2.2-3.8-2.4c-2.1-1.3-4.3-2.4-4.9-2.4-.5 0-1-.5-1-1 0-.6-.4-1-.9-1s-4.9-2.3-9.8-5.1c-4.8-2.8-10.4-6-12.3-7.1-5.2-3-28.2-16.3-38.5-22.3-11.3-6.6-46.8-27.1-51.5-29.8-3.7-2-38.7-22.3-63.5-36.7-13.7-7.9-47-27.1-51.2-29.5-1-.6-5.4-3.1-9.8-5.6-4.4-2.6-9.6-5.6-11.5-6.7-1.9-1.1-13.4-7.7-25.5-14.7-12.1-7-24-13.9-26.5-15.3-2.5-1.4-10.9-6.3-18.7-10.9-7.9-4.5-14.5-8.3-14.8-8.3-.3 0-2.4-1.2-4.8-2.7-2.3-1.4-9.6-5.7-16.2-9.5s-12.7-7.3-13.5-7.8c-3-1.8-49.4-28.6-53.4-30.8-2.2-1.3-7-4.1-10.6-6.2-3.6-2.1-8.1-4.7-10-5.7-1.9-1.1-13.4-7.8-25.5-14.8-12.1-7-24-13.9-26.5-15.3-2.5-1.4-15.5-8.9-29-16.7-35.9-20.8-89.9-51.9-94.5-54.5-2.2-1.2-10.3-5.9-18-10.4-7.7-4.6-20.5-12-28.5-16.6-8-4.5-22.9-13.2-33.2-19.2L151.1 416l-10.3 5.9c-5.7 3.2-11.9 6.8-13.8 7.9-1.9 1.2-4.9 2.8-6.7 3.7l-3.1 1.6v869.8l15.1 8.8c8.4 4.8 16.1 9.3 17.2 9.9 2.2 1.2 44.3 25.5 54.5 31.4 3.6 2.1 21.1 12.3 39 22.6s41.1 23.6 51.5 29.7c10.5 6.1 20.6 11.9 22.5 13 12.1 6.7 51 29.3 53.2 30.8 1.5 1.1 3 1.9 3.3 1.9.3 0 4 2.1 8.3 4.6 4.2 2.5 8.6 5 9.7 5.6 1.1.7 10.1 5.9 20 11.6 9.9 5.8 19.6 11.4 21.5 12.5 1.9 1.1 10.9 6.2 20 11.5 37.8 21.8 80.7 46.6 84 48.4 1.9 1.1 15 8.7 29 16.8 14 8.1 27.1 15.7 29 16.7 1.9 1.1 13.9 8 26.5 15.3 12.7 7.4 24.1 14 25.5 14.7 1.4.8 3.9 2.3 5.5 3.3 1.7 1 4.6 2.8 6.6 3.9 2 1 25.6 14.6 52.5 30.2 69.2 39.9 80.4 46.4 84.4 48.6 1.9 1.1 19.1 11.1 38.3 22.2 19.1 11 35.2 20.1 35.9 20.1 1 0 19.3-10.2 28.9-16.2l4.6-2.8V879.8l5.4-3c3-1.7 10.6-6.1 16.9-9.8 6.3-3.7 14.7-8.5 18.5-10.7 3.9-2.2 15.6-8.9 26-15 22.7-13.1 58.6-33.8 62.9-36.3 1.7-.9 22-12.7 45.1-26 23.1-13.4 43.7-25.3 45.7-26.4 2-1.2 7.8-4.5 13-7.5 5.1-3 10.7-6.2 12.3-7.1 1.7-1 8.1-4.7 14.4-8.4 6.2-3.6 11.5-6.6 11.6-6.6.2 0 3.9-2.1 8.2-4.7 7.8-4.6 37.5-21.8 44.5-25.7 4.6-2.6 33.5-19.3 44.8-25.9 10.4-6.1 10.5-6.2 67-38.7 25-14.5 52.7-30.5 61.5-35.5 8.8-5.1 17.6-10.2 19.5-11.2 1.9-1.1 5.8-3.4 8.6-5 2.7-1.7 7-4.1 9.5-5.5 2.4-1.4 11.6-6.7 20.4-11.8 8.8-5.1 18-10.4 20.5-11.8 2.5-1.3 7-3.9 10-5.8 5-2.9 34.4-19.9 68.8-39.7 7.3-4.3 13.4-7.7 13.6-7.7.2 0 .3 188.8.2 419.5-.1 350.9.1 419.5 1.2 419.5.8 0 2.6-.8 4-1.9 1.5-1 4.7-2.9 7.2-4.3 4.8-2.7 21.5-12.3 24-13.8.8-.5 4.3-2.6 7.8-4.5l6.2-3.6v-435c0-413.3-.1-435-1.7-435.6-1-.4-4.9-2.6-8.8-4.9-3.8-2.3-9.3-5.5-12.1-7.1-4.2-2.3-47.6-27.5-52.4-30.3-1.3-.8-19.7-11.4-29.5-17-21.3-12.2-63.9-36.8-66.7-38.6-2.1-1.3-4-2.4-4.2-2.4-.2 0-5-2.7-10.6-6s-10.3-6-10.5-6c-.2 0-3.4-1.8-7.2-4.1-3.7-2.2-7.5-4.5-8.3-4.9-.8-.5-12.3-7.1-25.4-14.7-13.1-7.6-26.2-15.1-29-16.7-2.8-1.6-19-11-36.1-20.9-17-9.9-33-19.1-35.5-20.5-2.5-1.4-21.4-12.3-42-24.2-20.6-11.9-58.2-33.6-83.5-48.2-38.5-22.3-105.2-60.8-120-69.4-2.2-1.3-4.7-2.7-5.5-3.1-.8-.4-4.3-2.4-7.8-4.5-3.4-2.1-6.5-3.8-6.8-3.8-.3 0-1.8-.8-3.2-1.9-1.5-1-4.7-2.9-7.2-4.3s-12.1-6.9-21.5-12.3c-9.3-5.4-24-13.9-32.5-18.8-17.7-10.3-20.6-11.9-25.7-14.8-2.1-1.2-4.2-2.5-4.8-2.9-.5-.4-3.5-2.1-6.5-3.7-3-1.7-14.9-8.5-26.4-15.2C880.1 6.5 870.4 1 870.1 1c-.3 0-7.8 4.2-16.6 9.3zM174.2 487.7c3.4 2 8.1 4.6 10.3 5.8 2.2 1.3 12.1 7 22 12.7 9.9 5.8 28.4 16.5 41 23.8 12.7 7.3 24.4 14 26 15 2.8 1.6 12.1 7 19 11 1.7.9 16.5 9.5 33 19s31.1 17.9 32.5 18.7c1.4.8 4 2.3 5.9 3.4 5.5 3.2 76.3 44.1 79.1 45.6 1.4.8 3.9 2.3 5.5 3.3 1.7 1 4.1 2.5 5.5 3.3 2.6 1.4 22.2 12.6 27.5 15.7 8.7 5 42.4 24.5 45 26 1.7.9 7.5 4.3 13 7.5 10.3 6 71.2 41.2 77.5 44.7 1.9 1.1 15 8.7 29 16.8 14 8.1 27.2 15.7 29.3 16.9 4.5 2.6 6.1 3.5 26.2 15.1 8.8 5.1 17.4 10.1 19 11 16.7 9.6 23.5 13.5 26 15.1 1.7 1.1 4.4 2.6 6 3.4 1.7.9 4.5 2.5 6.3 3.5 3.4 2.1 24.4 14.2 69.2 40.1l25.5 14.7v395.6c0 275.9-.3 395.6-1 395.6-.6 0-1.5-.4-2-.9-.6-.5-3-2-5.5-3.3-8.1-4.5-12.4-6.9-21.5-12.3-4.9-2.9-10.6-6.2-12.5-7.2-12-6.8-63.9-36.8-66-38.2-1.4-.8-3.8-2.3-5.5-3.2-2.8-1.5-46.4-26.7-129.4-74.7-19.6-11.3-41.2-23.7-48.1-27.7-11.7-6.7-20.2-11.6-60.3-34.9-18-10.4-16-9.2-29.7-17.1-5.8-3.3-11.2-6.4-12.1-7-.9-.5-3.2-1.8-5-2.9-1.9-1-7.4-4.2-12.4-7.1-9-5.3-58.9-34-65.5-37.8-1.9-1.1-7.5-4.3-12.5-7.2-4.9-2.9-10.6-6.2-12.5-7.3-1.9-1.1-7.5-4.3-12.5-7.2-4.9-2.9-10.8-6.2-13-7.5-2.2-1.2-10.7-6.1-18.9-10.9-8.2-4.7-15-8.6-15.2-8.6-.1 0-3.1-1.7-6.5-3.8-3.5-2.2-8.4-5-10.9-6.4-2.5-1.4-11.5-6.6-20-11.5-37.5-21.8-66.7-38.7-69.5-40.1-1.6-.9-5.3-3.1-8.2-4.9-2.9-1.8-5.6-3.3-6.1-3.3-3.8 0-3.7 12.7-3.7-398.7 0-217.4.1-395.3.2-395.3 0 0 3 1.6 6.5 3.7z"/></svg>